<?xml version="1.0" standalone="no"?>
<!DOCTYPE svg PUBLIC "-//W3C//DTD SVG 20010904//EN"
 "http://www.w3.org/TR/2001/REC-SVG-20010904/DTD/svg10.dtd">
<svg version="1.0" xmlns="http://www.w3.org/2000/svg"
 width="700.000000pt" height="700.000000pt" viewBox="0 0 700.000000 700.000000"
 preserveAspectRatio="xMidYMid meet">
<metadata>
Created by potrace 1.11, written by Peter Selinger 2001-2013
</metadata>
<g transform="translate(0.000000,700.000000) scale(0.100000,-0.100000)"
fill="#000000" stroke="none">
<path d="M3578 6995 c-1 -1 -43 -5 -93 -9 -83 -5 -181 -16 -280 -31 -35 -5
-75 -12 -180 -30 -176 -31 -503 -131 -700 -214 -53 -23 -315 -153 -357 -178
-346 -206 -618 -443 -858 -748 -62 -79 -65 -83 -153 -215 -174 -261 -306 -541
-418 -885 -35 -106 -119 -429 -134 -510 -2 -16 -9 -55 -15 -85 -5 -30 -12 -71
-15 -90 -3 -19 -8 -42 -10 -50 -2 -8 -7 -40 -10 -70 -3 -30 -8 -62 -10 -70 -2
-8 -7 -44 -10 -80 -4 -36 -9 -78 -11 -95 -3 -30 -9 -102 -19 -220 -4 -62 -11
-204 -20 -435 -6 -147 -11 -209 -31 -375 -11 -89 -37 -236 -60 -333 -13 -56
-26 -113 -28 -125 -6 -24 -21 -80 -85 -307 -23 -80 -43 -156 -46 -169 -2 -14
-10 -50 -16 -80 -14 -63 -18 -259 -7 -336 30 -220 216 -503 463 -705 140 -114
409 -269 540 -310 22 -7 45 -16 50 -20 19 -13 240 -79 365 -109 168 -40 306
-64 440 -76 36 -4 71 -8 78 -10 54 -18 665 -27 837 -12 150 12 207 19 290 31
11 2 47 7 80 11 33 4 62 9 65 10 3 2 24 6 46 9 47 7 56 9 154 31 333 73 658
176 965 307 161 68 485 228 522 258 14 11 30 20 34 20 31 0 417 257 604 402
203 157 470 411 623 593 42 50 79 92 82 95 4 3 26 32 51 65 24 33 46 62 49 65
8 8 46 63 118 172 213 322 359 656 446 1018 19 80 37 162 40 183 3 20 9 54 12
75 3 20 7 47 9 60 30 182 24 727 -10 911 -1 9 -6 36 -9 61 -10 63 -45 237 -58
285 -5 22 -11 47 -13 55 -24 126 -129 417 -220 615 -73 157 -235 423 -326 534
l-28 34 44 39 c219 193 118 554 -169 602 -137 24 -264 -27 -339 -135 l-16 -22
-118 80 c-281 191 -554 315 -898 408 -49 13 -101 26 -115 29 -91 17 -139 26
-170 31 -19 3 -46 7 -60 10 -32 6 -87 13 -175 21 -38 3 -81 8 -95 10 -29 6
-616 14 -622 9z"/>
</g>
</svg>
